<svg width="30" height="25" viewBox="0 0 30 25" fill="none" xmlns="http://www.w3.org/2000/svg">
<path d="M14.8 21.2C8.79999 21.2 3.29999 18 0.299988 12.8L0 12.3L0.299988 11.8C3.29999 6.59999 8.79999 3.39999 14.8 3.39999C20.8 3.39999 26.3 6.59999 29.3 11.8L29.6 12.3L29.3 12.8C26.3 18 20.8 21.2 14.8 21.2ZM2.29999 12.3C4.99999 16.6 9.69999 19.2 14.8 19.2C19.9 19.2 24.6 16.6 27.3 12.3C24.6 7.99999 19.9 5.39999 14.8 5.39999C9.69999 5.49999 4.99999 8.09999 2.29999 12.3Z" fill="#C4C4C4"/>
<path d="M14.8 21.2C9.90002 21.2 5.90002 17.2 5.90002 12.3C5.90002 7.39999 9.90002 3.39999 14.8 3.39999C19.7 3.39999 23.7 7.39999 23.7 12.3C23.7 17.2 19.7 21.2 14.8 21.2ZM14.8 5.5C11 5.5 7.90002 8.59999 7.90002 12.4C7.90002 16.2 11 19.3 14.8 19.3C18.6 19.3 21.7 16.2 21.7 12.4C21.7 8.49999 18.6 5.5 14.8 5.5Z" fill="#C4C4C4"/>
<path d="M25.3067 0.35776L2.82092 22.8436L4.23512 24.2578L26.7209 1.77196L25.3067 0.35776Z" fill="#C4C4C4"/>
</svg>
